REM DIRINDEX 1\2,1\3,1\4,1\5
REM DIRNAME "folder01","folder02","folder03","folder04","folder05"
TITLE ""
FILE "1Q_j_2328-2341.mp3" MP3
  TRACK 01 AUDIO
    TITLE "0:"
    INDEX 01 00:00:00
  TRACK 02 AUDIO
    TITLE "3:cjc172_0686"
    INDEX 01 00:00:12
  TRACK 03 AUDIO
    TITLE "0:"
    INDEX 01 00:01:47
  TRACK 04 AUDIO
    TITLE "4:cjc172_0687"
    INDEX 01 00:01:55
  TRACK 05 AUDIO
    TITLE "0:"
    INDEX 01 00:04:34
  TRACK 06 AUDIO
    TITLE "5:cjc172_0688"
    INDEX 01 00:04:41
  TRACK 07 AUDIO
    TITLE "0:"
    INDEX 01 00:10:24
  TRACK 08 AUDIO
    TITLE "3:cjc172_0689"
    INDEX 01 00:10:73
  TRACK 09 AUDIO
    TITLE "0:"
    INDEX 01 00:12:35
  TRACK 10 AUDIO
    TITLE "4:cjc172_0690"
    INDEX 01 00:12:43
  TRACK 11 AUDIO
    TITLE "0:"
    INDEX 01 00:14:34
  TRACK 12 AUDIO
    TITLE "5:cjc172_0691"
    INDEX 01 00:14:42
  TRACK 13 AUDIO
    TITLE "0:"
    INDEX 01 00:21:09
  TRACK 14 AUDIO
    TITLE "3:cjc172_0692"
    INDEX 01 00:21:58
  TRACK 15 AUDIO
    TITLE "0:"
    INDEX 01 00:23:09
  TRACK 16 AUDIO
    TITLE "4:cjc172_0693"
    INDEX 01 00:23:17
  TRACK 17 AUDIO
    TITLE "0:"
    INDEX 01 00:27:62
  TRACK 18 AUDIO
    TITLE "5:cjc172_0694"
    INDEX 01 00:27:70
  TRACK 19 AUDIO
    TITLE "0:"
    INDEX 01 00:32:18
  TRACK 20 AUDIO
    TITLE "3:cjc172_0695"
    INDEX 01 00:32:65
  TRACK 21 AUDIO
    TITLE "0:"
    INDEX 01 00:34:29
  TRACK 22 AUDIO
    TITLE "4:cjc172_0696"
    INDEX 01 00:34:37
  TRACK 23 AUDIO
    TITLE "0:"
    INDEX 01 00:36:43
  TRACK 24 AUDIO
    TITLE "5:cjc172_0697"
    INDEX 01 00:36:49
  TRACK 25 AUDIO
    TITLE "0:"
    INDEX 01 00:41:27
  TRACK 26 AUDIO
    TITLE "3:cjc172_0698"
    INDEX 01 00:41:72
  TRACK 27 AUDIO
    TITLE "0:"
    INDEX 01 00:43:41
  TRACK 28 AUDIO
    TITLE "4:cjc172_0699"
    INDEX 01 00:43:49
  TRACK 29 AUDIO
    TITLE "0:"
    INDEX 01 00:46:30
  TRACK 30 AUDIO
    TITLE "5:cjc172_0700"
    INDEX 01 00:46:36
  TRACK 31 AUDIO
    TITLE "0:"
    INDEX 01 00:52:13
  TRACK 32 AUDIO
    TITLE "3:cjc172_0701"
    INDEX 01 00:52:58
  TRACK 33 AUDIO
    TITLE "0:"
    INDEX 01 00:54:04
  TRACK 34 AUDIO
    TITLE "4:cjc172_0702"
    INDEX 01 00:54:16
  TRACK 35 AUDIO
    TITLE "0:"
    INDEX 01 00:56:68
  TRACK 36 AUDIO
    TITLE "5:cjc172_0703"
    INDEX 01 00:57:00
  TRACK 37 AUDIO
    TITLE "0:"
    INDEX 01 01:04:18
  TRACK 38 AUDIO
    TITLE "3:cjc172_0704"
    INDEX 01 01:04:63
  TRACK 39 AUDIO
    TITLE "0:"
    INDEX 01 01:06:11
  TRACK 40 AUDIO
    TITLE "4:cjc172_0705"
    INDEX 01 01:06:23
  TRACK 41 AUDIO
    TITLE "0:"
    INDEX 01 01:08:41
  TRACK 42 AUDIO
    TITLE "5:cjc172_0706"
    INDEX 01 01:08:47
  TRACK 43 AUDIO
    TITLE "0:"
    INDEX 01 01:14:32
  TRACK 44 AUDIO
    TITLE "3:cjc172_0707"
    INDEX 01 01:15:04
  TRACK 45 AUDIO
    TITLE "0:"
    INDEX 01 01:16:10
  TRACK 46 AUDIO
    TITLE "4:cjc172_0708"
    INDEX 01 01:16:31
  TRACK 47 AUDIO
    TITLE "0:"
    INDEX 01 01:20:41
  TRACK 48 AUDIO
    TITLE "5:cjc172_0709"
    INDEX 01 01:20:49
  TRACK 49 AUDIO
    TITLE "0:"
    INDEX 01 01:25:42
  TRACK 50 AUDIO
    TITLE "3:cjc172_0710"
    INDEX 01 01:26:14
  TRACK 51 AUDIO
    TITLE "0:"
    INDEX 01 01:27:33
  TRACK 52 AUDIO
    TITLE "4:cjc172_0711"
    INDEX 01 01:27:41
  TRACK 53 AUDIO
    TITLE "0:"
    INDEX 01 01:31:27
  TRACK 54 AUDIO
    TITLE "5:cjc172_0712"
    INDEX 01 01:31:35
  TRACK 55 AUDIO
    TITLE "0:"
    INDEX 01 01:36:20
  TRACK 56 AUDIO
    TITLE "3:cjc172_0713"
    INDEX 01 01:36:65
  TRACK 57 AUDIO
    TITLE "0:"
    INDEX 01 01:38:15
  TRACK 58 AUDIO
    TITLE "4:cjc172_0714"
    INDEX 01 01:38:27
  TRACK 59 AUDIO
    TITLE "0:"
    INDEX 01 01:43:04
  TRACK 60 AUDIO
    TITLE "5:cjc172_0715"
    INDEX 01 01:43:14
  TRACK 61 AUDIO
    TITLE "0:"
    INDEX 01 01:46:42
  TRACK 62 AUDIO
    TITLE "3:cjc172_0716"
    INDEX 01 01:47:16
  TRACK 63 AUDIO
    TITLE "0:"
    INDEX 01 01:48:35
  TRACK 64 AUDIO
    TITLE "4:cjc172_0717"
    INDEX 01 01:48:45
  TRACK 65 AUDIO
    TITLE "0:"
    INDEX 01 01:50:34
  TRACK 66 AUDIO
    TITLE "5:cjc172_0718"
    INDEX 01 01:50:44
  TRACK 67 AUDIO
    TITLE "0:"
    INDEX 01 01:57:42
  TRACK 68 AUDIO
    TITLE "3:cjc172_0719"
    INDEX 01 01:58:12
  TRACK 69 AUDIO
    TITLE "0:"
    INDEX 01 01:59:29
  TRACK 70 AUDIO
    TITLE "4:cjc172_0720"
    INDEX 01 01:59:37
  TRACK 71 AUDIO
    TITLE "0:"
    INDEX 01 02:02:19
  TRACK 72 AUDIO
    TITLE "5:cjc172_0721"
    INDEX 01 02:02:27
  TRACK 73 AUDIO
    TITLE "0:"
    INDEX 01 02:07:17
  TRACK 74 AUDIO
    TITLE "3:cjc172_0722"
    INDEX 01 02:07:66
  TRACK 75 AUDIO
    TITLE "0:"
    INDEX 01 02:09:02
  TRACK 76 AUDIO
    TITLE "4:cjc172_0723"
    INDEX 01 02:09:18
  TRACK 77 AUDIO
    TITLE "0:"
    INDEX 01 02:11:40
  TRACK 78 AUDIO
    TITLE "5:cjc172_0724"
    INDEX 01 02:11:50
  TRACK 79 AUDIO
    TITLE "0:"
    INDEX 01 02:16:35
  TRACK 80 AUDIO
    TITLE "3:cjc172_0725"
    INDEX 01 02:17:05
  TRACK 81 AUDIO
    TITLE "0:"
    INDEX 01 02:18:32
  TRACK 82 AUDIO
    TITLE "4:cjc172_0726"
    INDEX 01 02:18:40
  TRACK 83 AUDIO
    TITLE "0:"
    INDEX 01 02:20:45
  TRACK 84 AUDIO
    TITLE "5:cjc172_0727"
    INDEX 01 02:20:55
  TRACK 85 AUDIO
    TITLE "0:"
    INDEX 01 02:27:45
